<svg width="20" height="21" viewBox="0 0 20 21" fill="none" xmlns="http://www.w3.org/2000/svg">
<path d="M9.99731 5.37438C7.15795 5.37438 4.86644 7.66604 4.86644 10.5056C4.86644 13.3451 7.15795 15.6368 9.99731 15.6368C12.8367 15.6368 15.1282 13.3451 15.1282 10.5056C15.1282 7.66604 12.8367 5.37438 9.99731 5.37438ZM9.99731 13.8405C8.16111 13.8405 6.66262 12.3419 6.66262 10.5056C6.66262 8.66926 8.16111 7.17068 9.99731 7.17068C11.8335 7.17068 13.332 8.66926 13.332 10.5056C13.332 12.3419 11.8335 13.8405 9.99731 13.8405ZM15.3383 3.96837C14.6754 3.96837 14.14 4.50376 14.14 5.16673C14.14 5.82971 14.6754 6.3651 15.3383 6.3651C16.0013 6.3651 16.5366 5.83221 16.5366 5.16673C16.5368 5.00931 16.5059 4.85339 16.4458 4.70791C16.3856 4.56242 16.2974 4.43024 16.1861 4.31892C16.0748 4.2076 15.9426 4.11934 15.7971 4.05919C15.6516 3.99903 15.4957 3.96817 15.3383 3.96837ZM19.9989 10.5056C19.9989 9.12459 20.0114 7.7561 19.9338 6.37761C19.8563 4.77645 19.4911 3.35543 18.3203 2.18458C17.147 1.01124 15.7286 0.648474 14.1275 0.570918C12.7466 0.493362 11.3782 0.505871 9.99981 0.505871C8.61891 0.505871 7.25051 0.493362 5.8721 0.570918C4.27105 0.648474 2.85012 1.01374 1.67935 2.18458C0.506076 3.35793 0.143338 4.77645 0.0657868 6.37761C-0.0117642 7.7586 0.000744099 9.12709 0.000744099 10.5056C0.000744099 11.8841 -0.0117642 13.2551 0.0657868 14.6336C0.143338 16.2347 0.508578 17.6557 1.67935 18.8266C2.85262 19.9999 4.27105 20.3627 5.8721 20.4403C7.25301 20.5178 8.62141 20.5053 9.99981 20.5053C11.3807 20.5053 12.7491 20.5178 14.1275 20.4403C15.7286 20.3627 17.1495 19.9974 18.3203 18.8266C19.4936 17.6532 19.8563 16.2347 19.9338 14.6336C20.0139 13.2551 19.9989 11.8866 19.9989 10.5056ZM17.7974 16.4048C17.6148 16.8602 17.3947 17.2004 17.0419 17.5507C16.6892 17.9034 16.3515 18.1236 15.8962 18.3062C14.5803 18.8291 11.4558 18.7115 9.99731 18.7115C8.53885 18.7115 5.4118 18.8291 4.09593 18.3087C3.64064 18.1261 3.30041 17.9059 2.95018 17.5532C2.59745 17.2004 2.37731 16.8627 2.19469 16.4073C1.67434 15.0889 1.79192 11.9641 1.79192 10.5056C1.79192 9.04703 1.67434 5.91978 2.19469 4.60383C2.37731 4.1485 2.59745 3.80825 2.95018 3.458C3.30291 3.10775 3.64064 2.88509 4.09593 2.70246C5.4118 2.18208 8.53885 2.29967 9.99731 2.29967C11.4558 2.29967 14.5828 2.18208 15.8987 2.70246C16.354 2.88509 16.6942 3.10525 17.0444 3.458C17.3972 3.81076 17.6173 4.1485 17.7999 4.60383C18.3203 5.91978 18.2027 9.04703 18.2027 10.5056C18.2027 11.9641 18.3203 15.0889 17.7974 16.4048Z" fill="#3366FF"/>
</svg>
