<svg width="56" height="50" viewBox="0 0 56 50" fill="none" xmlns="http://www.w3.org/2000/svg">
<path d="M16.6201 10.4533H16.8544C19.7705 10.4533 22.5672 11.7716 24.6292 14.1182C26.6912 16.4648 27.8496 19.6475 27.8496 22.9661V46.0738C27.8496 46.6344 27.6539 47.172 27.3056 47.5684C26.9573 47.9648 26.4849 48.1875 25.9923 48.1875H7.48218C6.98959 48.1875 6.51718 47.9648 6.16887 47.5684C5.82056 47.172 5.62488 46.6344 5.62488 46.0738V22.9661C5.62488 19.6475 6.7833 16.4648 8.8453 14.1182C10.9073 11.7716 13.704 10.4533 16.6201 10.4533Z" stroke="#FF9140" stroke-width="2" stroke-linecap="round" stroke-linejoin="round"/>
<path d="M38.8448 10.4533H39.0791C41.9952 10.4533 44.7919 11.7716 46.8539 14.1182C48.9159 16.4648 50.0743 19.6475 50.0743 22.9661V46.0738C50.0743 46.6344 49.8786 47.172 49.5303 47.5684C49.182 47.9648 48.7096 48.1875 48.217 48.1875H29.7069C29.2143 48.1875 28.7419 47.9648 28.3936 47.5684C28.0453 47.172 27.8496 46.6344 27.8496 46.0738V22.9661C27.8496 19.6475 29.008 16.4648 31.07 14.1182C33.132 11.7716 35.9287 10.4533 38.8448 10.4533Z" stroke="#FF9140" stroke-width="2" stroke-linecap="round" stroke-linejoin="round"/>
<path d="M6.12526 19.2228H3.74235C3.49564 19.2238 3.25121 19.1692 3.02312 19.0622C2.79502 18.9552 2.58779 18.7979 2.41334 18.5994C2.23889 18.4009 2.10068 18.165 2.00666 17.9055C1.91265 17.6459 1.86469 17.3677 1.86555 17.087V3.82333C1.86469 3.54257 1.91265 3.2644 2.00666 3.00483C2.10068 2.74526 2.23889 2.50942 2.41333 2.31089C2.58778 2.11237 2.79502 1.95508 3.02311 1.84809C3.2512 1.7411 3.49564 1.68652 3.74234 1.6875H51.9577C52.2044 1.68652 52.4488 1.7411 52.6769 1.84809C52.905 1.95508 53.1122 2.11236 53.2867 2.31089C53.4611 2.50941 53.5993 2.74525 53.6934 3.00483C53.7874 3.2644 53.8353 3.54257 53.8345 3.82333V17.0869C53.8353 17.3677 53.7874 17.6459 53.6934 17.9054C53.5993 18.165 53.4611 18.4009 53.2867 18.5994C53.1122 18.7979 52.905 18.9552 52.6769 19.0622C52.4488 19.1692 52.2044 19.2237 51.9577 19.2228H49.5737" stroke="#FF9140" stroke-width="2" stroke-linecap="round" stroke-linejoin="round"/>
<path d="M21.7248 26.094H11.75C10.7242 26.094 9.8927 27.0403 9.8927 28.2076V34.2112C9.8927 35.3785 10.7242 36.3248 11.75 36.3248H21.7248C22.7506 36.3248 23.5821 35.3785 23.5821 34.2112V28.2076C23.5821 27.0403 22.7506 26.094 21.7248 26.094Z" stroke="#FF9140" stroke-width="2" stroke-linecap="round" stroke-linejoin="round"/>
<path d="M43.9493 26.094H33.9745C32.9487 26.094 32.1172 27.0403 32.1172 28.2076V34.2112C32.1172 35.3785 32.9487 36.3248 33.9745 36.3248H43.9493C44.975 36.3248 45.8066 35.3785 45.8066 34.2112V28.2076C45.8066 27.0403 44.975 26.094 43.9493 26.094Z" stroke="#FF9140" stroke-width="2" stroke-linecap="round" stroke-linejoin="round"/>
<path d="M1.20898 31.2094H9.89256" stroke="#FF9140" stroke-width="2" stroke-linecap="round" stroke-linejoin="round"/>
<path d="M45.8065 31.2094H54.4901" stroke="#FF9140" stroke-width="2" stroke-linecap="round" stroke-linejoin="round"/>
<path d="M23.582 31.2094H32.1173" stroke="#FF9140" stroke-width="2" stroke-linecap="round" stroke-linejoin="round"/>
<path d="M16.7374 29.1805V33.2383" stroke="#FF9140" stroke-width="2" stroke-linecap="round" stroke-linejoin="round"/>
<path d="M14.9127 31.2094H18.5616" stroke="#FF9140" stroke-width="2" stroke-linecap="round" stroke-linejoin="round"/>
<path d="M38.9619 29.263V33.3209" stroke="#FF9140" stroke-width="2" stroke-linecap="round" stroke-linejoin="round"/>
<path d="M37.1374 31.2919H40.7863" stroke="#FF9140" stroke-width="2" stroke-linecap="round" stroke-linejoin="round"/>
</svg>
