<svg width="58" height="58" viewBox="0 0 58 58" fill="none" xmlns="http://www.w3.org/2000/svg">
<path d="M26.8089 24.4824C26.8294 24.0176 27.0286 23.5785 27.365 23.2568C27.7014 22.9351 28.1491 22.7555 28.6148 22.7555C29.0804 22.7555 29.5281 22.9351 29.8645 23.2568C30.2009 23.5785 30.4002 24.0176 30.4206 24.4824C30.5262 28.8852 31.9308 32.3649 33.6416 32.3649C35.4211 32.3649 36.8679 28.6052 36.8679 23.9638C36.8689 23.1466 36.8225 22.3301 36.7291 21.5182C36.6696 20.9605 36.7266 20.3965 36.8966 19.862C37.0666 19.3274 37.3458 18.834 37.7166 18.4129C39.1568 16.6665 39.9284 14.4651 39.8935 12.2024C39.8935 7.46252 36.7517 3.625 32.8707 3.625C32.0426 3.62577 31.224 3.80118 30.4683 4.13974C29.9231 4.38208 29.333 4.5073 28.7362 4.5073C28.1395 4.5073 27.5494 4.38208 27.0041 4.13974C26.2485 3.80118 25.4298 3.62577 24.6017 3.625C20.726 3.625 17.5789 7.46252 17.5789 12.2024C17.549 14.3872 18.2667 16.5167 19.6133 18.2383C19.9647 18.6572 20.2272 19.1432 20.3848 19.6667C20.5423 20.1902 20.5917 20.7403 20.5298 21.2835C20.4166 22.1724 20.3604 23.0677 20.3616 23.9638C20.3616 28.6052 21.8084 32.3649 23.5879 32.3649C25.2987 32.3649 26.7033 28.8852 26.8089 24.4824Z" stroke="#D17633" stroke-width="2" stroke-linecap="round" stroke-linejoin="round"/>
<path d="M36.0691 11.3597C35.4744 9.94121 34.4846 8.72323 33.2173 7.85066" stroke="#D17633" stroke-width="2" stroke-linecap="round" stroke-linejoin="round"/>
<path d="M18.4162 42.6679L9.18156 32.3641V19.4996C9.17518 18.7717 8.87973 18.0762 8.36019 17.5659C7.84066 17.0557 7.13958 16.7725 6.41116 16.7788C5.68274 16.7725 4.98166 17.0557 4.46212 17.5659C3.94258 18.0761 3.64713 18.7717 3.64075 19.4996V31.4843C3.64097 32.0628 3.78572 32.6321 4.06188 33.1405L11.131 46.1736C11.6143 47.0633 11.8676 48.0595 11.868 49.0719V51.7074C11.8721 52.1786 12.0634 52.6289 12.3997 52.9592C12.736 53.2895 13.1899 53.4728 13.6614 53.4687H21.4081C21.8796 53.4728 22.3335 53.2895 22.6698 52.9592C23.0061 52.6289 23.1974 52.1786 23.2015 51.7074V40.5816C23.2008 40.1175 23.1075 39.6582 22.9271 39.2305C22.7468 38.8028 22.4829 38.4154 22.1509 38.0908L14.6232 30.6977C14.136 30.2227 13.4839 29.9541 12.8032 29.9484C12.1225 29.9426 11.4659 30.2 10.9707 30.6667C10.4894 31.1195 10.2048 31.7426 10.1776 32.4026C10.1503 33.0626 10.3828 33.7069 10.8251 34.1978L18.4162 42.6679Z" stroke="#D17633" stroke-width="2" stroke-linecap="round" stroke-linejoin="round"/>
<path d="M38.7091 42.6671L47.9437 32.3633V19.4989C47.9501 18.771 48.2455 18.0754 48.7651 17.5651C49.2846 17.0549 49.9857 16.7718 50.7141 16.778C51.4425 16.7718 52.1436 17.0549 52.6632 17.5651C53.1827 18.0754 53.4781 18.771 53.4845 19.4989V31.4836C53.4843 32.062 53.3396 32.6313 53.0634 33.1397L45.9943 46.1729C45.511 47.0626 45.2577 48.0588 45.2573 49.0711V51.7067C45.2531 52.1779 45.0619 52.6281 44.7256 52.9584C44.3893 53.2887 43.9354 53.472 43.4639 53.4679H35.7172C35.2457 53.472 34.7918 53.2887 34.4555 52.9584C34.1192 52.6281 33.928 52.1779 33.9238 51.7067V40.5809C33.9245 40.1168 34.0178 39.6575 34.1981 39.2298C34.3785 38.8021 34.6424 38.4147 34.9744 38.0901L42.5021 30.697C42.9893 30.2219 43.6414 29.9534 44.3221 29.9477C45.0028 29.9419 45.6594 30.1993 46.1546 30.666C46.6358 31.1188 46.9205 31.7419 46.9477 32.4019C46.9749 33.0618 46.7425 33.7062 46.3002 34.1971L38.7091 42.6671Z" stroke="#D17633" stroke-width="2" stroke-linecap="round" stroke-linejoin="round"/>
</svg>
