<svg width="64" height="64" viewBox="0 0 64 64" fill="none" xmlns="http://www.w3.org/2000/svg">
<path d="M26.5762 41.651C26.6056 40.9666 26.8967 40.32 27.3887 39.8462C27.8808 39.3723 28.5357 39.1078 29.217 39.1078C29.8982 39.1078 30.5532 39.3723 31.0452 39.8462C31.5372 40.32 31.8283 40.9666 31.8577 41.651C32.0121 48.1347 34.066 53.2591 36.5678 53.2591C39.1699 53.2591 41.2855 47.7223 41.2855 40.8873C41.2869 39.6839 41.2192 38.4814 41.0826 37.2858C40.9955 36.4645 41.0789 35.6341 41.3274 34.8469C41.576 34.0597 41.9843 33.333 42.5265 32.7127C44.6328 30.1402 45.7611 26.8986 45.7099 23.5668C45.7099 16.5867 41.1157 10.9354 35.4404 10.9354C34.2294 10.9365 33.0323 11.1948 31.9274 11.6934C31.1302 12.0503 30.2672 12.2347 29.3946 12.2347C28.5219 12.2347 27.659 12.0503 26.8617 11.6934C25.7568 11.1948 24.5597 10.9365 23.3487 10.9354C17.6812 10.9354 13.0792 16.5867 13.0792 23.5668C13.0353 26.7839 14.0848 29.9198 16.0541 32.4556C16.568 33.0727 16.9519 33.7885 17.1823 34.5594C17.4127 35.3303 17.4848 36.1402 17.3942 36.94C17.2287 38.2492 17.1466 39.5676 17.1484 40.8873C17.1484 47.7223 19.2641 53.2591 21.8662 53.2591C24.3679 53.2591 26.4218 48.1347 26.5762 41.651Z" stroke="#45CDF7" stroke-width="2" stroke-linecap="round" stroke-linejoin="round"/>
<path d="M4 55.2058C6.99674 52.0557 12.0681 49.3697 17.8051 47.14C20.5652 46.0646 23.4821 45.0927 26.3989 44.2344C28.2494 43.6761 30.0894 43.1694 31.8981 42.7041C35.2645 41.8355 38.4741 41.1117 41.2864 40.5429C44.8201 39.7984 47.716 39.2918 49.4306 39.0126C49.8862 38.939 50.3011 38.7054 50.6016 38.3532C50.9021 38.0011 51.0688 37.5533 51.072 37.0893V37.0066C51.0528 36.5455 50.8724 36.106 50.5625 35.7655C50.2527 35.425 49.8334 35.2054 49.3783 35.1453L41.6524 34.0596" stroke="#45CDF7" stroke-width="2" stroke-linecap="round" stroke-linejoin="round"/>
<path d="M14.6373 30.244L8.32266 29.3547C7.69571 29.2721 7.11988 28.9635 6.70218 28.4861C6.28308 28.018 6.05204 27.4099 6.05397 26.78C6.06023 26.0888 6.33689 25.4278 6.82408 24.9402C7.31126 24.4525 7.9698 24.1773 8.6572 24.1742C10.1836 24.1639 11.6577 24.1329 13.09 24.0915C28.0612 23.6676 38.2545 21.8787 45.1651 19.5004C54.875 16.1634 58.1034 11.6739 59 8.20575" stroke="#45CDF7" stroke-width="2" stroke-linecap="round" stroke-linejoin="round"/>
</svg>
