<svg width="53" height="54" viewBox="0 0 53 54" fill="none" xmlns="http://www.w3.org/2000/svg">
<path d="M43.1768 5.3568C40.3311 6.20065 37.8857 7.77964 36.1993 9.86222C34.5128 11.9448 33.674 14.4214 33.8059 16.9289C33.9377 19.4364 35.0332 21.8428 36.9318 23.7954C38.8304 25.7479 41.4322 27.1438 44.3556 27.7783C43.8853 28.7514 43.7179 29.8072 43.8691 30.8482C44.0718 32.2329 44.1718 33.6267 44.1685 35.0216C44.1685 42.2416 41.5956 48.0938 38.4238 48.0938C35.3736 48.0938 32.8755 42.6846 32.6884 35.8299C32.691 35.4774 32.6097 35.128 32.4491 34.8017C32.2886 34.4754 32.0519 34.1787 31.7528 33.9287C31.4537 33.6786 31.098 33.4802 30.7061 33.3448C30.3143 33.2094 29.8942 33.1397 29.4698 33.1397C29.0454 33.1397 28.6253 33.2094 28.2334 33.3448C27.8416 33.4802 27.4859 33.6786 27.1868 33.9287C26.8877 34.1787 26.651 34.4754 26.4904 34.8017C26.3299 35.128 26.2486 35.4774 26.2512 35.8299C26.0641 42.6846 23.566 48.0938 20.5158 48.0938C17.3441 48.0938 14.7711 42.2416 14.7711 35.0216C14.7693 33.7495 14.8505 32.4783 15.0143 31.2135C15.1236 30.3522 15.0242 29.4815 14.7221 28.6526C14.4201 27.8238 13.9213 27.0535 13.2553 26.3872C10.6726 23.6266 9.30558 20.2147 9.38181 16.7191C9.38183 9.34372 14.9769 3.375 21.8912 3.375C23.3701 3.37662 24.8303 3.64998 26.167 4.17549C27.1317 4.55168 28.1843 4.74671 29.2499 4.74671C30.3156 4.74671 31.3682 4.55168 32.3328 4.17549C33.6726 3.64913 35.136 3.37576 36.618 3.375C39.0126 3.39409 41.3271 4.09345 43.1768 5.3568Z" stroke="#2952CE" stroke-width="2" stroke-linecap="round" stroke-linejoin="round"/>
<path d="M46.2923 25.1826C48.1831 22.6414 49.1662 19.7064 49.1273 16.7191C49.1782 13.513 48.0344 10.3723 45.8526 7.7272C41.4551 9.39814 38.4705 12.639 38.4705 16.3772C38.4705 20.232 41.6516 23.5738 46.2923 25.1826Z" stroke="#2952CE" stroke-width="2" stroke-linecap="round" stroke-linejoin="round"/>
<path d="M15.4128 13.1872C16.4984 10.9886 18.319 9.09395 20.6593 7.7272" stroke="#2952CE" stroke-width="2" stroke-linecap="round" stroke-linejoin="round"/>
</svg>
