<svg width="55" height="55" viewBox="0 0 55 55" fill="none" xmlns="http://www.w3.org/2000/svg">
<path d="M3.43751 38.3602V45.8015C3.4554 47.1168 3.99408 48.3713 4.93547 49.2901C5.87686 50.2088 7.14414 50.7168 8.45948 50.7027H45.6642C46.9822 50.7203 48.2532 50.2139 49.198 49.2949C50.1428 48.3759 50.6842 47.1194 50.7031 45.8015V37.5078C50.7031 40.798 48.0528 44.3269 44.7864 44.3269C42.4991 44.3269 40.5157 43.8155 39.5366 42.3749C39.4634 42.2631 39.3631 42.1717 39.245 42.1091C39.127 42.0465 38.995 42.0148 38.8614 42.017C38.7352 42.0228 38.6121 42.0582 38.5021 42.1204C38.3922 42.1826 38.2984 42.2698 38.2283 42.3749C37.2408 43.8155 35.2574 44.3269 32.97 44.3269C30.6827 44.3269 28.6993 43.8155 27.7202 42.3749C27.6483 42.2674 27.551 42.1792 27.4369 42.1183C27.3228 42.0573 27.1954 42.0254 27.0661 42.0254C26.9367 42.0254 26.8093 42.0573 26.6952 42.1183C26.5811 42.1792 26.4838 42.2674 26.4119 42.3749C25.4244 43.8155 23.441 44.3269 21.1537 44.3269C18.8663 44.3269 16.8829 43.8155 15.9038 42.3749C15.8338 42.2698 15.74 42.1826 15.63 42.1204C15.52 42.0582 15.397 42.0228 15.2708 42.017C15.1372 42.0148 15.0052 42.0465 14.8871 42.1091C14.769 42.1717 14.6687 42.2631 14.5956 42.3749C13.608 43.8155 11.6246 44.3269 9.33727 44.3269C7.76399 44.317 6.25895 43.6831 5.15274 42.5643C4.04654 41.4456 3.42962 39.9335 3.43751 38.3602Z" stroke="#F9CD3B" stroke-width="2" stroke-linecap="round" stroke-linejoin="round"/>
<path d="M38.8613 30.8678V42.0169C38.9949 42.0148 39.1269 42.0465 39.2449 42.1091C39.363 42.1717 39.4633 42.2631 39.5365 42.3749C40.5156 43.8155 42.499 44.3269 44.7863 44.3269C48.0527 44.3269 50.703 40.798 50.703 37.5078V30.8678H38.8613Z" stroke="#F9CD3B" stroke-width="2" stroke-linecap="round" stroke-linejoin="round"/>
<path d="M27.0703 30.8678V42.0254C27.1988 42.0266 27.3251 42.059 27.4384 42.1199C27.5516 42.1808 27.6483 42.2683 27.7202 42.3749C28.6992 43.8155 30.6827 44.3269 32.97 44.3269C35.2573 44.3269 37.2408 43.8155 38.2283 42.3749C38.2983 42.2698 38.3921 42.1826 38.5021 42.1204C38.6121 42.0582 38.7351 42.0228 38.8613 42.0169V30.8678H27.0703Z" stroke="#F9CD3B" stroke-width="2" stroke-linecap="round" stroke-linejoin="round"/>
<path d="M15.2706 30.8678V42.0169C15.3968 42.0228 15.5199 42.0582 15.6299 42.1204C15.7398 42.1826 15.8336 42.2698 15.9037 42.3749C16.8827 43.8155 18.8662 44.3269 21.1535 44.3269C23.4408 44.3269 25.4243 43.8155 26.4118 42.3749C26.484 42.2667 26.5819 42.1781 26.6969 42.1171C26.8118 42.0561 26.94 42.0246 27.0701 42.0254V30.8678H15.2706Z" stroke="#F9CD3B" stroke-width="2" stroke-linecap="round" stroke-linejoin="round"/>
<path d="M3.43751 30.8678V38.3602C3.42962 39.9335 4.04654 41.4456 5.15274 42.5643C6.25895 43.6831 7.76399 44.317 9.33727 44.3269C11.6246 44.3269 13.608 43.8155 14.5956 42.3749C14.6687 42.2631 14.769 42.1717 14.8871 42.1091C15.0052 42.0465 15.1372 42.0148 15.2708 42.0169V30.8678H3.43751Z" stroke="#F9CD3B" stroke-width="2" stroke-linecap="round" stroke-linejoin="round"/>
<path d="M39.427 3.4375H34.2216C33.9977 3.4375 33.7831 3.52642 33.6248 3.68471C33.4665 3.84299 33.3776 4.05767 33.3776 4.28152V8.74659C33.3776 8.96899 33.4653 9.18241 33.6218 9.34045L36.9761 12.7278L40.0275 9.64622C40.184 9.48815 40.2718 9.27467 40.2718 9.05222L40.271 4.28139C40.271 4.05756 40.182 3.84292 40.0237 3.68466C39.8655 3.5264 39.6508 3.4375 39.427 3.4375Z" stroke="#F9CD3B" stroke-width="2" stroke-linecap="round" stroke-linejoin="round"/>
<path d="M36.976 12.7278V16.7122" stroke="#F9CD3B" stroke-width="2" stroke-linecap="round" stroke-linejoin="round"/>
<path d="M7.12396 6.73106L11.6065 6.94381C15.6148 7.13404 19.6319 6.90269 23.5918 6.25357L33.3777 4.64944" stroke="#F9CD3B" stroke-width="2" stroke-linecap="round" stroke-linejoin="round"/>
<path d="M7.12396 14.1611C14.0737 14.1611 20.9654 12.8969 27.4626 10.43L33.3777 8.18417" stroke="#F9CD3B" stroke-width="2" stroke-linecap="round" stroke-linejoin="round"/>
<path d="M22.9198 6.3596V11.9408" stroke="#F9CD3B" stroke-width="2" stroke-linecap="round" stroke-linejoin="round"/>
<path d="M34.2778 16.7122H39.6743C39.849 16.7122 40.0194 16.7664 40.1619 16.8673C40.3045 16.9682 40.4123 17.1109 40.4703 17.2757L42.4645 22.936C42.5541 23.1905 42.5815 23.4629 42.5442 23.7302C42.5069 23.9975 42.406 24.2519 42.2501 24.4722C42.0941 24.6925 41.8876 24.8722 41.6479 24.9962C41.4082 25.1202 41.1422 25.1849 40.8723 25.1849H33.0797C32.8098 25.1849 32.5439 25.1202 32.3041 24.9962C32.0644 24.8722 31.8579 24.6925 31.702 24.4722C31.546 24.2519 31.4452 23.9975 31.4079 23.7302C31.3706 23.4629 31.3979 23.1905 31.4876 22.936L33.4817 17.2757C33.5397 17.1109 33.6475 16.9682 33.7901 16.8673C33.9327 16.7664 34.1031 16.7122 34.2778 16.7122Z" stroke="#F9CD3B" stroke-width="2" stroke-linecap="round" stroke-linejoin="round"/>
</svg>
