<svg width="37" height="37" viewBox="0 0 37 37" fill="none" xmlns="http://www.w3.org/2000/svg">
<g clip-path="url(#clip0_1003_411)">
<path d="M33.8389 4.75346C30.9154 1.7064 25.8907 0.208984 18.509 0.208984C11.1273 0.208984 6.1026 1.68898 3.17914 4.75346C1.00482 6.99957 0.0364272 10.0989 0.255686 13.9643C0.493217 17.9864 1.26062 21.7996 2.55791 25.3167C3.58112 28.12 4.91495 30.6796 6.50457 32.9083C8.33174 35.4678 10.0858 36.7737 11.7303 36.7737C12.6804 36.7737 14.0325 36.321 15.0557 34.1619C16.2068 31.7417 17.4493 30.3487 18.4907 30.3487C19.5322 30.3487 20.7747 31.7417 21.9258 34.1619C22.949 36.321 24.3011 36.7737 25.2512 36.7737C26.8957 36.7737 28.6498 35.4678 30.4769 32.9083C32.0666 30.6796 33.4004 28.12 34.4419 25.2993C35.7391 21.7822 36.5066 17.969 36.7441 13.9469C36.9633 10.0989 35.9949 6.99957 33.8389 4.75346ZM18.509 1.82828C20.7747 1.82828 22.8028 1.96757 24.5935 2.26357C27.6814 3.1864 29.7826 4.70122 30.0932 6.23345C30.2577 7.0344 29.8922 7.80051 28.9969 8.5144C28.193 9.15863 27.2611 9.47204 26.11 9.47204C23.9357 9.47204 21.4142 8.39251 18.7283 7.26075C16.6819 6.39016 14.5624 5.50216 12.5342 5.08428C11.4379 4.87534 10.3782 4.75346 9.35495 4.75346C7.38161 4.75346 5.62754 5.18875 4.22062 6.0071C4.25717 5.97228 4.31198 5.92004 4.34853 5.86781C6.96137 3.15157 11.5841 1.82828 18.509 1.82828ZM13.594 33.4829C13.0641 34.5972 12.4428 35.1718 11.7485 35.1718C10.7253 35.1718 9.30013 34.0226 7.85667 32.0029C3.85519 26.2396 2.41174 18.5262 4.54951 14.4518C5.18902 13.233 6.34013 12.5017 7.63741 12.5017C9.15396 12.5017 11.6572 13.4419 14.8912 17.8819C17.2666 21.1205 18.4542 24.6725 19.587 28.1026C19.6967 28.4335 19.8063 28.7817 19.9159 29.1125C19.4409 28.8687 18.9658 28.7469 18.4725 28.7469C16.7367 28.7469 15.074 30.3487 13.594 33.4829ZM35.0996 13.8772C34.5515 23.1403 31.1347 29.1996 29.1431 32.0029C27.6996 34.0226 26.2745 35.1718 25.2512 35.1718C24.5569 35.1718 23.9357 34.5972 23.4058 33.4829C23.3693 33.3958 23.3327 33.3262 23.2962 33.2391C22.4557 31.5153 21.8345 29.6175 21.1584 27.5977C19.9707 24.0457 18.7466 20.3718 16.2251 16.9417C12.5707 11.9445 9.53766 10.8998 7.63741 10.8998C5.7189 10.8998 4.01964 11.9445 3.10606 13.7205C2.64927 14.5563 2.33865 15.5313 2.15593 16.6109C2.0463 15.7403 1.95495 14.8349 1.90013 13.8946C1.86359 11.5092 2.52137 9.64616 3.83692 8.34028C5.11593 7.05181 7.03445 6.37275 9.35495 6.37275C10.2503 6.37275 11.2186 6.47722 12.2053 6.68616C14.069 7.05181 16.0972 7.9224 18.0705 8.75816C20.793 9.90734 23.6068 11.0913 26.11 11.0913C27.6266 11.0913 28.9421 10.656 30.0384 9.76804C31.3905 8.6711 31.9752 7.31298 31.7011 5.92004C31.6098 5.48475 31.427 5.04946 31.1712 4.61416C31.7194 4.99722 32.2127 5.39769 32.6512 5.8504C34.4967 7.80051 35.3006 10.4297 35.0996 13.8772Z" fill="url(#paint0_linear_1003_411)" stroke="url(#paint1_linear_1003_411)" stroke-width="0.25" stroke-miterlimit="10"/>
</g>
<defs>
<linearGradient id="paint0_linear_1003_411" x1="5.6058" y1="18.5" x2="42.0809" y2="18.5" gradientUnits="userSpaceOnUse">
<stop stop-color="#001C81"/>
<stop offset="1" stop-color="#3359DF"/>
</linearGradient>
<linearGradient id="paint1_linear_1003_411" x1="8.22185" y1="19.153" x2="40.1945" y2="18.1944" gradientUnits="userSpaceOnUse">
<stop stop-color="#001C81"/>
<stop offset="1" stop-color="#3359DF"/>
</linearGradient>
<clipPath id="clip0_1003_411">
<rect width="37" height="37" fill="white"/>
</clipPath>
</defs>
</svg>
